<?xml version="1.0" standalone="no"?>
<!DOCTYPE svg PUBLIC "-//W3C//DTD SVG 20010904//EN"
 "http://www.w3.org/TR/2001/REC-SVG-20010904/DTD/svg10.dtd">
<svg version="1.0" xmlns="http://www.w3.org/2000/svg"
 width="647.000000pt" height="1280.000000pt" viewBox="0 0 647.000000 1280.000000"
 preserveAspectRatio="xMidYMid meet">
<metadata>
Created by potrace 1.15, written by Peter Selinger 2001-2017
</metadata>
<g transform="translate(0.000000,1280.000000) scale(0.100000,-0.100000)"
fill="#000000" stroke="none">
<path d="M2175 12790 c-125 -25 -238 -93 -340 -202 -157 -168 -252 -425 -300
-808 -23 -184 -35 -530 -26 -730 9 -204 23 -248 99 -323 69 -68 129 -92 229
-92 45 0 79 -2 75 -6 -4 -3 -45 -21 -92 -39 -917 -355 -1631 -1227 -1797
-2195 -24 -143 -24 -490 0 -640 90 -546 331 -1019 697 -1368 265 -252 585
-441 1204 -713 l249 -109 -7 -280 c-3 -154 -9 -308 -12 -342 l-7 -61 -81 62
c-407 310 -972 329 -1391 46 -256 -173 -415 -468 -432 -802 -14 -275 75 -503
248 -634 l49 -38 -18 -27 c-9 -15 -60 -76 -112 -134 -156 -176 -221 -271 -287
-421 -83 -187 -65 -364 48 -489 73 -79 138 -108 257 -113 115 -5 155 3 385 80
l179 59 146 -11 c140 -10 397 -46 508 -70 l52 -11 -48 -49 c-140 -143 -227
-581 -200 -1005 39 -605 192 -981 483 -1186 136 -95 312 -146 467 -136 449 31
750 462 814 1166 8 80 14 122 15 93 2 -90 21 -241 46 -368 109 -543 389 -864
775 -891 314 -21 617 180 775 514 113 236 176 585 176 968 0 269 -30 476 -95
647 l-24 66 110 61 c525 291 947 726 1197 1234 91 184 137 304 187 486 168
614 107 1251 -176 1826 -350 713 -983 1226 -1800 1459 l-115 33 -3 67 c-2 36
0 66 3 66 3 0 23 -9 45 -20 169 -86 458 -133 684 -111 622 60 972 491 943
1161 -8 168 -23 271 -87 558 -77 352 -93 451 -94 597 -1 127 0 131 31 196 91
185 66 348 -76 490 -70 69 -124 100 -209 118 -157 33 -302 -6 -442 -118 -51
-41 -71 -51 -117 -57 -74 -9 -175 9 -292 53 -141 52 -171 69 -171 97 0 36 51
410 56 416 3 3 89 30 192 60 l187 55 3 290 c7 738 -107 1176 -367 1417 -84 78
-163 122 -267 148 -93 24 -169 25 -272 4 -142 -29 -270 -101 -378 -211 -195
-200 -351 -587 -405 -1003 -6 -52 -15 -241 -19 -420 l-6 -325 -2 235 c-3 390
-23 589 -83 824 -105 418 -301 717 -550 840 -138 68 -286 92 -414 66z m269
-344 c194 -95 353 -401 427 -821 17 -99 22 -184 29 -495 5 -206 9 -432 9 -501
l1 -126 173 -6 c148 -5 330 -27 432 -53 l25 -6 1 188 c1 483 17 876 38 999 78
445 250 757 461 836 76 28 185 24 254 -11 161 -82 273 -361 316 -790 15 -150
24 -509 16 -613 l-8 -87 -53 48 c-65 60 -110 82 -166 82 -36 0 -47 -6 -78 -38
-63 -66 -74 -114 -131 -572 -16 -134 -30 -255 -30 -270 0 -25 12 -33 168 -108
271 -131 413 -172 589 -172 150 1 265 34 337 98 55 49 121 76 187 76 106 2
129 -63 65 -180 -29 -52 -37 -80 -46 -166 -21 -183 0 -349 95 -778 76 -343 88
-440 82 -630 -6 -179 -28 -284 -83 -396 -115 -234 -369 -357 -704 -340 -289
14 -447 79 -515 211 -26 50 -30 72 -33 151 -2 51 3 140 12 201 28 194 35 287
25 362 -11 88 -47 195 -91 268 -39 65 -188 228 -198 216 -25 -29 -112 -1945
-89 -1967 3 -3 86 -26 184 -51 322 -83 486 -143 702 -255 240 -124 404 -242
596 -430 365 -355 589 -776 678 -1275 21 -113 24 -163 24 -380 0 -159 -5 -281
-13 -335 -107 -686 -506 -1291 -1112 -1685 -148 -96 -287 -170 -382 -203 -98
-35 -307 -88 -385 -98 -34 -4 -53 -11 -53 -20 0 -32 41 -292 52 -324 19 -62
57 -127 84 -149 72 -57 164 9 214 153 11 33 20 68 20 80 0 34 17 5 40 -69 63
-208 88 -586 56 -863 -30 -253 -95 -465 -186 -604 -61 -93 -124 -151 -210
-192 -61 -29 -73 -31 -175 -31 -106 0 -112 1 -173 34 -92 50 -162 132 -228
266 -85 174 -124 343 -149 651 -25 301 -80 584 -151 767 -43 112 -75 167 -125
211 -82 75 -163 36 -232 -112 -74 -158 -112 -371 -127 -720 -6 -125 -15 -263
-20 -307 -51 -390 -183 -663 -370 -761 -51 -27 -63 -29 -165 -29 -99 0 -116 3
-169 28 -154 72 -256 212 -334 457 -105 331 -110 903 -11 1210 24 72 39 96 39
62 0 -34 36 -131 65 -174 70 -105 158 -101 218 10 37 68 52 135 82 367 14 110
28 219 31 241 l6 42 -194 47 c-499 121 -847 172 -1092 163 -101 -4 -123 -9
-246 -52 -321 -114 -385 -110 -358 19 15 70 64 157 148 260 222 273 254 315
286 381 70 140 54 246 -51 341 -29 26 -73 65 -99 86 -182 151 -153 550 59 810
80 99 248 192 410 228 95 21 313 16 407 -9 297 -80 490 -250 544 -478 34 -144
6 -352 -72 -544 -19 -47 -35 -89 -37 -94 -5 -22 345 -276 381 -276 5 0 16 96
25 213 53 662 77 1143 101 1966 l4 133 -107 50 c-58 27 -221 102 -361 165
-630 284 -886 439 -1136 688 -211 211 -356 449 -463 764 -94 276 -133 608
-101 871 49 402 269 874 584 1251 334 401 770 687 1261 829 44 13 83 26 87 29
4 4 -8 120 -27 258 -27 206 -39 263 -61 313 -62 139 -158 148 -289 28 l-53
-48 -8 77 c-10 109 2 512 21 668 52 447 173 708 353 766 15 4 63 7 107 6 65
-2 91 -7 139 -31z"/>
<path d="M2188 12341 c-145 -92 -238 -446 -255 -965 -6 -194 -6 -199 13 -191
10 4 49 10 85 13 78 5 122 -12 177 -67 82 -82 104 -175 168 -696 5 -42 2 -55
-18 -84 -21 -30 -39 -39 -198 -91 -428 -142 -699 -306 -1000 -609 -234 -234
-377 -433 -516 -716 -80 -164 -151 -364 -184 -520 -27 -129 -37 -384 -21 -521
60 -488 290 -953 606 -1224 238 -206 458 -330 1070 -610 160 -73 317 -146 350
-162 33 -17 56 -26 50 -21 -5 6 -127 92 -270 193 -605 426 -830 619 -781 669
32 31 70 29 556 -33 151 -19 362 -40 468 -47 578 -34 1030 85 1303 343 l56 53
7 310 c13 628 71 1661 96 1717 7 13 24 32 40 41 62 37 115 15 216 -88 186
-190 270 -422 245 -674 -6 -54 -17 -141 -26 -192 -19 -117 -19 -239 -1 -282
45 -107 204 -161 471 -162 173 0 224 10 342 66 196 93 279 253 290 554 7 185
-6 279 -88 654 -78 355 -91 446 -92 621 -1 163 14 278 43 326 11 17 20 34 20
37 0 14 -60 -17 -103 -53 -96 -78 -241 -114 -432 -107 -199 8 -337 52 -624
195 -174 87 -201 111 -201 178 0 67 79 680 96 748 31 119 86 201 160 237 38
18 57 21 112 16 37 -2 75 -8 85 -12 16 -7 17 2 17 101 -1 530 -110 969 -265
1059 -55 33 -140 34 -202 4 -106 -51 -220 -226 -293 -447 -85 -261 -97 -375
-106 -992 -7 -545 -6 -537 -70 -567 -32 -16 -40 -16 -118 0 -136 29 -312 47
-449 47 -142 0 -176 10 -201 58 -11 21 -15 121 -20 477 -7 472 -14 586 -47
750 -64 327 -210 605 -352 674 -66 32 -151 29 -209 -8z m184 -491 c148 -41
173 -239 42 -316 -37 -22 -54 -26 -99 -22 -150 12 -215 187 -110 293 50 49
101 63 167 45z m1780 0 c119 -33 165 -179 86 -274 -67 -81 -176 -89 -252 -18
-56 53 -70 125 -37 197 22 49 48 73 98 91 47 16 58 17 105 4z m-652 -2465 c61
-12 80 -20 103 -46 l29 -32 -6 -1041 c-4 -572 -9 -1064 -12 -1093 -6 -56 -37
-98 -81 -109 -43 -11 -290 66 -508 158 -144 61 -171 79 -184 121 -8 28 -31
1824 -23 1912 3 42 22 74 52 90 29 15 147 42 240 55 85 12 295 4 390 -15z
m-1016 -345 c29 -29 30 -31 42 -202 15 -203 41 -659 54 -948 10 -231 5 -256
-55 -284 -64 -31 -100 -14 -183 83 -84 97 -117 148 -172 264 -161 338 -141
708 52 966 124 164 187 194 262 121z m2591 -494 c95 -44 165 -153 165 -256 0
-102 -67 -207 -164 -257 -41 -22 -65 -27 -121 -27 -120 1 -203 53 -256 159
-29 59 -31 71 -27 137 6 85 28 136 85 190 83 80 215 103 318 54z"/>
<path d="M3117 9291 c-76 -11 -172 -32 -184 -40 -8 -5 -6 -248 9 -1641 l3
-234 100 -44 c106 -47 445 -163 456 -157 3 3 10 460 14 1017 4 557 8 1026 9
1043 1 28 -3 31 -49 43 -63 16 -281 23 -358 13z"/>
<path d="M2354 8907 c-139 -152 -199 -353 -174 -579 20 -179 72 -324 165 -462
49 -73 118 -156 130 -156 2 0 2 35 0 78 -3 42 -10 181 -15 307 -13 269 -49
858 -54 862 -2 2 -25 -20 -52 -50z"/>
<path d="M4130 6863 c-152 -24 -289 -60 -671 -178 -547 -169 -880 -223 -1319
-211 -129 3 -260 8 -290 11 l-55 6 77 -41 c159 -83 347 -117 587 -107 225 10
406 42 961 171 753 175 1101 186 1539 49 9 -2 -8 9 -38 26 -29 17 -76 50 -105
74 -175 148 -334 208 -545 206 -64 -1 -127 -4 -141 -6z"/>
<path d="M4570 6513 c-103 -16 -257 -54 -440 -110 -650 -197 -867 -246 -1216
-274 -149 -12 -503 -7 -626 9 -31 5 -55 5 -53 2 7 -11 131 -70 191 -90 120
-42 220 -55 414 -54 260 1 355 17 1065 178 455 103 647 130 920 130 236 0 387
-23 580 -88 23 -8 23 -8 -74 56 -31 21 -81 58 -111 83 -73 60 -196 121 -294
145 -60 15 -109 20 -205 19 -69 -1 -137 -4 -151 -6z"/>
<path d="M4886 6205 c-117 -19 -224 -49 -545 -151 -423 -135 -676 -194 -961
-225 -133 -15 -486 -15 -610 -1 -52 6 -96 9 -98 7 -10 -10 172 -90 257 -112
78 -21 127 -27 264 -31 253 -7 388 14 937 144 592 141 709 159 1020 159 248
-1 337 -12 495 -64 33 -11 61 -19 62 -17 2 1 -25 21 -60 44 -34 23 -89 65
-122 92 -67 57 -191 123 -275 146 -80 22 -258 26 -364 9z"/>
<path d="M5130 5895 c-95 -20 -170 -43 -410 -128 -264 -92 -388 -129 -550
-161 -247 -49 -503 -57 -740 -22 -52 8 -96 13 -98 12 -6 -6 108 -77 161 -100
108 -48 181 -61 352 -60 198 0 258 10 697 120 490 122 537 129 803 128 238 0
293 -9 437 -69 87 -36 97 -39 68 -18 -14 10 -71 61 -126 115 -162 154 -261
199 -433 197 -53 0 -125 -7 -161 -14z"/>
<path d="M2875 5587 l-33 -33 -6 -334 c-3 -184 -8 -711 -12 -1171 -6 -909 -8
-878 48 -907 107 -55 609 -83 696 -38 68 35 63 -36 57 971 -3 501 -8 984 -11
1074 -8 207 4 193 -239 291 -99 40 -231 97 -294 127 -63 29 -127 53 -143 53
-21 0 -41 -11 -63 -33z"/>
<path d="M5325 5586 c-44 -13 -123 -40 -175 -60 -408 -158 -528 -194 -722
-217 -151 -17 -398 -1 -532 36 -44 12 71 -75 149 -114 100 -49 157 -61 295
-61 134 0 245 21 530 99 410 112 491 126 694 118 158 -6 236 -24 349 -81 l69
-35 -44 48 c-23 26 -63 73 -87 105 -53 70 -141 137 -217 165 -76 29 -201 27
-309 -3z"/>
<path d="M5517 5250 c-38 -11 -150 -53 -250 -94 -238 -97 -349 -131 -488 -152
-140 -20 -266 -14 -400 20 -52 13 -96 22 -98 21 -1 -2 18 -27 45 -55 30 -33
73 -63 122 -88 69 -34 84 -37 176 -40 127 -5 208 10 485 88 117 33 245 67 284
75 102 23 292 31 369 15 71 -14 176 -58 224 -95 43 -33 51 -32 22 3 -12 15
-39 59 -58 96 -42 83 -118 170 -174 198 -59 31 -171 34 -259 8z"/>
<path d="M3911 5124 c-44 -31 -49 -64 -40 -259 21 -460 73 -1245 95 -1425 6
-44 14 -62 39 -87 58 -58 117 -42 202 51 129 141 219 330 270 567 27 127 25
423 -4 540 -62 248 -175 418 -374 569 -69 51 -86 60 -122 60 -24 0 -53 -7 -66
-16z"/>
<path d="M5430 4879 c-274 -96 -348 -119 -435 -134 -154 -26 -296 -14 -440 39
-38 14 -71 23 -73 21 -8 -7 38 -63 89 -109 62 -56 140 -86 239 -93 93 -7 172
5 420 64 217 51 395 67 500 44 74 -16 168 -63 222 -111 l46 -40 -58 112 c-79
151 -114 196 -179 230 -85 45 -152 40 -331 -23z"/>
<path d="M1239 4636 c-206 -57 -342 -266 -308 -475 36 -230 259 -392 485 -354
138 24 257 114 317 240 30 64 32 75 32 178 0 102 -2 114 -31 175 -92 191 -299
290 -495 236z"/>
<path d="M5515 4575 c-22 -7 -103 -38 -180 -69 -189 -77 -261 -96 -387 -103
-122 -7 -197 5 -305 47 l-73 28 18 -30 c31 -55 101 -119 160 -146 52 -25 67
-27 172 -26 104 1 135 6 320 53 301 76 418 79 557 14 28 -13 75 -44 102 -69
l51 -46 -28 54 c-15 29 -39 80 -54 113 -38 86 -90 149 -141 174 -50 24 -147
27 -212 6z"/>
<path d="M4601 4223 c19 -54 86 -138 140 -175 80 -55 157 -72 299 -64 312 17
407 18 461 7 92 -19 176 -65 243 -134 l61 -62 -23 75 c-43 137 -74 202 -122
251 -73 76 -130 84 -305 43 -217 -50 -251 -55 -345 -56 -139 0 -257 37 -387
122 l-33 22 11 -29z"/>
<path d="M4556 4024 c38 -159 131 -254 284 -292 25 -6 118 -20 208 -32 306
-39 406 -92 505 -265 15 -27 26 -41 23 -30 -3 11 -10 63 -16 115 -17 171 -53
244 -139 283 -42 20 -64 22 -266 22 -150 1 -236 5 -270 14 -95 26 -189 78
-264 147 -66 61 -71 64 -65 38z"/>
<path d="M4555 3710 c23 -108 97 -188 204 -220 36 -11 125 -26 196 -35 155
-18 192 -27 268 -68 62 -32 115 -86 142 -144 9 -19 18 -33 20 -31 9 9 -29 216
-45 248 -43 85 -92 101 -306 99 -88 0 -179 4 -204 10 -94 21 -171 65 -244 137
l-38 39 7 -35z"/>
<path d="M4480 3547 c0 -42 22 -108 49 -146 34 -48 94 -81 248 -135 206 -73
270 -120 312 -232 18 -45 18 -46 25 -19 10 40 9 177 -2 205 -25 63 -91 95
-252 121 -158 25 -258 79 -335 181 l-45 60 0 -35z"/>
<path d="M1525 3515 c-122 -27 -326 -114 -449 -193 -23 -14 -86 -50 -141 -79
-55 -29 -97 -53 -94 -53 3 0 39 11 80 25 225 78 383 108 564 108 213 0 340
-36 595 -167 392 -201 490 -247 607 -285 244 -80 444 -106 752 -98 189 5 413
26 486 47 20 5 -21 9 -121 9 -433 3 -846 84 -1177 232 -132 59 -220 109 -450
256 -195 126 -292 175 -389 198 -76 18 -182 18 -263 0z"/>
<path d="M4376 3426 c-9 -35 3 -103 25 -147 29 -58 89 -103 236 -178 76 -39
155 -84 176 -101 47 -39 82 -99 100 -170 l14 -55 17 72 c22 98 21 170 -4 210
-24 39 -66 62 -191 101 -185 57 -272 119 -335 236 -29 55 -32 57 -38 32z"/>
<path d="M4290 3345 c0 -5 -5 -30 -10 -55 -21 -108 22 -180 174 -295 177 -133
221 -191 234 -309 l7 -61 33 82 c37 95 41 153 13 200 -19 30 -92 79 -206 136
-61 30 -146 104 -176 154 -13 20 -33 64 -45 97 -13 34 -23 57 -24 51z"/>
<path d="M1445 3175 c-137 -31 -300 -102 -490 -215 -66 -40 -144 -83 -172 -96
-83 -36 -62 -36 42 2 208 74 419 114 606 114 225 0 375 -40 734 -197 367 -160
579 -223 847 -252 215 -24 626 -7 850 34 l73 13 -115 1 c-384 4 -773 61 -1072
157 -185 60 -349 132 -578 254 -216 115 -304 154 -408 181 -88 22 -225 24
-317 4z"/>
<path d="M4196 3162 c-4 -7 -10 -36 -13 -65 -8 -76 17 -117 137 -228 118 -108
149 -155 157 -235 l6 -57 27 54 c62 123 51 161 -76 243 -144 95 -191 149 -219
256 -7 28 -14 40 -19 32z"/>
<path d="M4082 3060 c-12 -25 -22 -56 -22 -70 0 -42 45 -121 110 -195 95 -108
115 -147 115 -227 l0 -67 23 27 c38 45 62 99 62 138 0 39 -4 43 -147 174 -72
65 -102 120 -112 204 l-8 61 -21 -45z"/>
<path d="M2529 2243 c-61 -155 -106 -319 -119 -436 -14 -120 0 -217 50 -368
24 -69 44 -151 47 -188 8 -97 -23 -208 -101 -365 -36 -71 -62 -125 -57 -120
36 42 156 201 190 252 77 114 106 188 106 267 0 63 -5 80 -47 170 -65 138 -87
205 -100 312 -14 105 -1 276 31 421 18 85 18 102 0 55z"/>
<path d="M3928 2157 c19 -88 24 -146 25 -267 2 -187 -10 -241 -92 -415 -51
-110 -56 -126 -56 -190 0 -106 52 -205 219 -420 99 -128 103 -131 46 -30 -94
168 -139 322 -126 428 4 29 25 107 47 175 69 213 72 343 13 559 -24 92 -81
251 -93 265 -4 4 4 -43 17 -105z"/>
</g>
</svg>
